<svg id="ecbvyl0l8fg81" xmlns="http://www.w3.org/2000/svg" xmlns:xlink="http://www.w3.org/1999/xlink" viewBox="0 0 127.600000 127.600000" shape-rendering="geometricPrecision" text-rendering="geometricPrecision"><style><![CDATA[#ecbvyl0l8fg89_tr {animation: ecbvyl0l8fg89_tr__tr 1500ms linear infinite normal forwards}@keyframes ecbvyl0l8fg89_tr__tr { 0% {transform: translate(64.177017px,63.414837px) rotate(0deg)} 100% {transform: translate(64.177017px,63.414837px) rotate(360deg)} }]]></style><defs><linearGradient id="ecbvyl0l8fg810-fill" x1="67.097414" y1="63.193712" x2="134.264114" y2="57.860412" spreadMethod="pad" gradientUnits="userSpaceOnUse"><stop id="ecbvyl0l8fg810-fill-0" offset="0%" stop-color="rgb(255,255,255)"/><stop id="ecbvyl0l8fg810-fill-1" offset="81.080000%" stop-color="rgba(255,255,255,0)"/></linearGradient></defs><rect id="ecbvyl0l8fg82" width="127.600000" height="127.600000" rx="0" ry="0" fill="rgb(30,136,229)" stroke="none" stroke-width="1"/><g id="ecbvyl0l8fg83"><path id="ecbvyl0l8fg84" d="M24.700000,54.500000C24.700000,53.600000,24.700000,52.700000,24.700000,51.800000C25.100000,49.700000,26.500000,47.900000,28.400000,46.800000C34.400000,42.600000,41.300000,40.300000,48.300000,38.500000C59.600000,35.600000,71,33.300000,82.700000,33.700000C87.700000,33.600000,92.600000,34.700000,97.100000,36.700000C102.300000,39.300000,103.900000,42.700000,102.400000,48.300000C100.300000,56.100000,95,61.400000,88.500000,65.600000C80.500000,70.900000,71.400000,73,61.900000,73.600000C57.800000,74.100000,53.600000,73.900000,49.500000,73.200000C48.900000,73.100000,48.300000,72.900000,47.700000,72.700000C47,72.500000,46.500000,72.100000,46.600000,71.200000C46.700000,70.400000,47.500000,70.400000,48,70.400000C50.300000,70.300000,52.600000,70.300000,54.800000,70.100000C68.800000,68.900000,81.300000,64.100000,91.600000,54.100000C94,51.800000,95.800000,49,97,46C98.800000,41.600000,97.500000,38.400000,93.100000,36.700000C89,35.200000,84.500000,34.600000,80.200000,35.200000C65.800000,36.600000,52,41.100000,39.600000,48.400000C35.800000,50.600000,32.400000,53.500000,29.900000,57.100000C28.500000,59.200000,27,59,25.600000,56.800000C25.100000,56.100000,24.800000,55.300000,24.700000,54.500000Z" fill="rgb(255,255,255)" stroke="none" stroke-width="1"/><path id="ecbvyl0l8fg85" d="M27.400000,76.200000C27.500000,75.300000,27.900000,74.400000,28.500000,73.700000C34.300000,64.700000,41.400000,56.600000,49.600000,49.600000C50.800000,48.500000,52.300000,47.800000,53.900000,47.400000C54.700000,47.200000,55.500000,47.200000,56.300000,47.200000C57,47.200000,58,47.200000,58.300000,48C58.600000,48.800000,58,49.300000,57.500000,49.800000C53.600000,52.500000,50.900000,56.500000,47.600000,59.900000C44.600000,62.900000,41.900000,66.100000,39.300000,69.400000C36.900000,72.600000,34.100000,76.400000,33.200000,80.300000C33,81.100000,32.800000,81.900000,31.900000,81.900000C30.400000,81.900000,29.500000,80.100000,28.600000,79C27.900000,78.300000,27.500000,77.300000,27.400000,76.200000Z" fill="rgb(255,255,255)" stroke="none" stroke-width="1"/><path id="ecbvyl0l8fg86" d="M41.300000,76.300000C49.500000,81.600000,58.100000,81.800000,66.900000,79.800000C75.700000,77.900000,83.800000,75.100000,89.600000,67.400000C90.200000,69.600000,89.900000,70.500000,88.100000,72.700000C83.100000,79,76.100000,83.200000,68.300000,84.900000C60.100000,87.100000,51.400000,85.400000,44.600000,80.300000C43,79.500000,41.800000,78,41.300000,76.300000Z" fill="rgb(255,255,255)" stroke="none" stroke-width="1"/><path id="ecbvyl0l8fg87" d="M84.500000,56.800000C74.500000,55.500000,66,58.400000,57.800000,62.400000C56.800000,62.900000,55.800000,63.300000,54.700000,63.500000C53.800000,63.600000,52.600000,63.700000,52.200000,62.800000C51.900000,62,52.200000,61.100000,52.900000,60.500000C54.500000,58.800000,56.600000,57.600000,58.900000,57C65.900000,54.500000,73.500000,53.800000,80.800000,55C82.200000,55.200000,83.500000,55.800000,84.500000,56.800000Z" fill="rgb(255,255,255)" stroke="none" stroke-width="1"/><path id="ecbvyl0l8fg88" d="M66.400000,94L63.300000,94C57.900000,93.600000,55.600000,92.500000,54,89.600000C64.500000,92.600000,73.900000,90.800000,81.500000,82.600000C81.900000,87.900000,74.900000,93.400000,66.400000,94Z" fill="rgb(255,255,255)" stroke="none" stroke-width="1"/></g><g id="ecbvyl0l8fg89_tr" transform="translate(64.177017,63.414837) rotate(0)"><g id="ecbvyl0l8fg89" transform="translate(-64.177017,-63.414837)"><path id="ecbvyl0l8fg810" d="M66.400000,11.600000C66.400000,12.700000,65.700000,13,64.700000,13C59.400000,12.900000,52.700000,14.100000,47.200000,16C41.600000,18,36.300000,21.100000,31.700000,25C22.300000,32.700000,16,44,14.200000,55.900000C13.300000,61.900000,13.300000,68.100000,14.500000,74C15.700000,79.900000,17.900000,85.600000,21.100000,90.800000C27.400000,101.100000,37.500000,109.200000,49.100000,112.900000C60.700000,116.600000,73.600000,116.100000,84.900000,111.400000C96.200000,106.700000,105.600000,97.800000,111.100000,86.800000C113.800000,81.300000,115.600000,75.300000,116.300000,69.200000C116.400000,67.700000,116.500000,66.100000,116.600000,64.600000C116.700000,63.800000,116.600000,63.100000,116.600000,62.300000C116.600000,61.500000,116.600000,60.800000,116.500000,60C116.300000,56.900000,115.800000,53.900000,115.100000,50.900000C112.200000,39,104.800000,28.100000,94.700000,21C104.800000,28.100000,112.400000,38.800000,115.500000,51C116.200000,54,116.800000,57.100000,117,60.200000C117.100000,60.900000,117.100000,61.700000,117.100000,62.500000C117.100000,63.200000,117.200000,64,117.100000,64.800000C117,66.400000,117,68,116.900000,69.500000C116.300000,75.700000,114.500000,81.700000,111.800000,87.300000C106.300000,98.500000,96.800000,107.600000,85.300000,112.600000C73.800000,117.500000,60.600000,118.200000,48.600000,114.500000C36.600000,110.800000,26.100000,102.600000,19.400000,92C16,86.700000,13.600000,80.800000,12.300000,74.600000C11,68.400000,10.900000,62,11.800000,55.800000C12.700000,49.500000,14.800000,43.400000,17.800000,37.900000C20.800000,32.300000,24.900000,27.300000,29.700000,23.200000C34.500000,19,40.100000,15.700000,46,13.500000C51.900000,11.200000,59.100000,9.800000,64.600000,10C66.100000,10.200000,66.400000,10.500000,66.400000,11.600000Z" fill="url(#ecbvyl0l8fg810-fill)" stroke="none" stroke-width="1"/></g></g></svg>