<svg xmlns="http://www.w3.org/2000/svg" viewBox="-1954.085 -1462 1394 786"><defs><style>.a{fill:#d3d3d3;opacity:0.5;}</style></defs><g transform="translate(-1934 -1454)"><circle class="a" cx="10" cy="10" r="10" transform="translate(1301 727.872)"/><circle class="a" cx="17.5" cy="17.5" r="17.5" transform="translate(1338.915 645)"/><circle class="a" cx="7.5" cy="7.5" r="7.5" transform="translate(1285.915 552)"/><circle class="a" cx="10" cy="10" r="10" transform="translate(1162.915 616)"/><circle class="a" cx="10" cy="10" r="10" transform="translate(879.915 701)"/><circle class="a" cx="7.5" cy="7.5" r="7.5" transform="translate(1086.915 728)"/><circle class="a" cx="7.5" cy="7.5" r="7.5" transform="translate(956.915 566)"/><circle class="a" cx="10" cy="10" r="10" transform="translate(1260 140.872)"/><circle class="a" cx="15" cy="15" r="15" transform="translate(1325.915 252)"/><circle class="a" cx="7.5" cy="7.5" r="7.5" transform="translate(1192.915 364)"/><circle class="a" cx="17.5" cy="17.5" r="17.5" transform="translate(1335.915 52)"/><circle class="a" cx="20" cy="20" r="20" transform="translate(967.915 -8)"/><circle class="a" cx="10" cy="10" r="10" transform="translate(1275.915 8)"/><circle class="a" cx="7.5" cy="7.5" r="7.5" transform="translate(1134.915 62)"/><circle class="a" cx="7.5" cy="7.5" r="7.5" transform="translate(1033.915 213)"/><circle class="a" cx="15" cy="15" r="15" transform="translate(138.915 151)"/><circle class="a" cx="20" cy="20" r="20" transform="translate(-20.085 152)"/><circle class="a" cx="7.5" cy="7.5" r="7.5" transform="translate(-2.085 67)"/><circle class="a" cx="7.5" cy="7.5" r="7.5" transform="translate(234.915 1)"/><circle class="a" cx="15" cy="15" r="15" transform="translate(148.915 21)"/><circle class="a" cx="7.5" cy="7.5" r="7.5" transform="translate(383.915 133)"/><circle class="a" cx="7.5" cy="7.5" r="7.5" transform="translate(65.915 265)"/><circle class="a" cx="10" cy="10" r="10" transform="translate(56.915 625)"/><circle class="a" cx="10" cy="10" r="10" transform="translate(36.915 416)"/><circle class="a" cx="15" cy="15" r="15" transform="translate(213.915 657)"/><circle class="a" cx="7.5" cy="7.5" r="7.5" transform="translate(133.915 548)"/><circle class="a" cx="7.5" cy="7.5" r="7.5" transform="translate(407.915 644)"/><circle class="a" cx="7.5" cy="7.5" r="7.5" transform="translate(227.915 421)"/><circle class="a" cx="7.5" cy="7.5" r="7.5" transform="translate(-0.085 721)"/><circle class="a" cx="17.5" cy="17.5" r="17.5" transform="translate(105.915 743)"/></g></svg>