<?xml version="1.0" encoding="utf-8"?>
<!-- Generator: Adobe Illustrator 22.0.0, SVG Export Plug-In . SVG Version: 6.00 Build 0)  -->
<svg version="1.1" id="Layer_1" xmlns="http://www.w3.org/2000/svg" xmlns:xlink="http://www.w3.org/1999/xlink" x="0px" y="0px"
	 viewBox="0 0 250 150" style="enable-background:new 0 0 250 150;" xml:space="preserve">
<style type="text/css">
	.st0{fill:#2979FF;}
	.st1{fill:#14181D;}
	.st2{fill:#FFFFFF;}
</style>
<g>
	<path class="st0" d="M7,66.7c0-1.1,0-2.1,0-3.2c0.4-2.7,2.2-4.3,4.2-5.8c7-5,15-7.5,23.2-9.6c13.1-3.3,26.4-6.1,40.1-5.7
		c5.8,0.2,11.5,0.9,16.8,3.6c6.1,3,7.9,7,6.2,13.5c-2.4,9.1-8.6,15.2-16.2,20.2C72,85.9,61.4,88.3,50.4,89
		c-4.8,0.3-9.6,0.6-14.4-0.5c-0.8-0.2-1.5-0.4-2.2-0.6c-0.8-0.3-1.4-0.7-1.3-1.7c0.1-1,1-0.9,1.6-0.9c2.6-0.2,5.3-0.1,7.9-0.3
		c16.3-1.4,30.9-7,42.8-18.5c2.8-2.7,4.8-5.9,6.3-9.5c2.1-5.1,0.6-8.9-4.6-10.8c-4.9-1.8-10-2.4-15.1-1.8
		c-16.7,1.9-32.6,6.4-47.1,15.3c-4.4,2.7-8.4,5.8-11.3,10.1c-1.7,2.5-3.4,2.3-5-0.3C7.6,68.6,7.1,67.8,7,66.7z"/>
	<path class="st1" d="M10.2,92.1c0-1.1,0.6-2,1.2-2.9c6.9-10.5,14.9-20,24.6-28c1.5-1.2,3.2-2.1,5-2.5c0.9-0.2,1.9-0.2,2.8-0.2
		c0.8,0,1.9,0,2.3,0.9c0.4,0.9-0.3,1.6-0.9,2C40.7,64.5,37.5,69,33.7,73c-3.4,3.5-6.7,7.2-9.6,11.1c-2.8,3.7-6,8.2-7.1,12.7
		c-0.2,0.9-0.5,1.8-1.6,1.8c-1.8,0-2.8-2-3.9-3.4C10.8,94.4,10.3,93.3,10.2,92.1z"/>
	<path class="st0" d="M26.4,92.2c9.5,6.3,19.6,6.4,29.9,4.2C66.3,94.2,75.9,91,82.7,82c0.7,2.5,0.3,3.6-1.7,6.1
		c-6,7.5-13.9,11.8-23.2,14.1c-10,2.4-19.2,0.6-27.6-5.3C27.7,95.2,27.2,94.4,26.4,92.2z"/>
	<path class="st0" d="M76.7,69.5c-11.6-1.5-21.5,1.9-31.1,6.6c-1.1,0.6-2.3,1.1-3.6,1.3c-1,0.1-2.4,0.3-2.9-0.8
		c-0.4-1,0.2-2,0.8-2.7c1.9-2.2,4.4-3.3,7-4.1c8.3-2.7,16.8-3.8,25.5-2.3C73.9,67.5,75,68,76.7,69.5z"/>
	<path class="st0" d="M55.6,112.8c-1.2,0-2.4,0-3.6,0c-6.3-0.5-8.9-1.8-10.9-5.2c12.3,3.4,23.1,1.3,32-8.1
		C73.7,105.7,65.5,112.1,55.6,112.8z"/>
	<path class="st1" d="M238.1,37.2c-0.3,0-0.6-0.1-0.9,0c-2.5,0.2-5.1,1.5-7.2,2.7c-2.1,1.3-4,2.8-5.7,4.6c-0.9,0.9-1.7,1.7-2.5,2.7
		c-8.5,9.3-15.6,19.5-20.8,31c-1.8,4.1-9.5,8.6-13.9,8c-0.9-0.1-1.9-0.2-2.1-1.2c-0.2-1,0.8-1.3,1.5-1.6c2.1-1,3.8-2.5,5.1-4.4
		c1.3-1.9,1.6-4.1,0.2-6.1c-1.5-2.2-3.6-2.1-5.8-1.3c-2.5,0.9-4.1,3-5.7,5c-2.8,3.3-5.7,6.5-9.2,9.1c-0.9,0.7-2.1,1.5-3.2,0.5
		c-1-1-0.2-2.3,0.3-3.3c0.8-1.5,1.8-2.8,2.5-4.3c0.7-1.6,1.4-3.6-0.4-4.8c-4.1-3.1-10.5,1.2-11.8,3.7c-1,2-2,4-3.1,6
		c-0.4-1.8,0.6-3.6,1-5.5c0.4-1.8-0.1-4.3-1.9-4.7c-1-0.2-2,0.3-2.7,1s-1.1,1.6-1.6,2.5c-2.1,3.8-5.4,7-9.2,9.1
		c-0.8,0.4-1.8,0.8-2.6,0.2c-1-0.8-0.3-2.4,0.5-3.5c0.8-1.2,1.6-2.5,2.3-3.8c0.6-1.3,1-4.6-1.5-5.5c-2.6-0.9-5.5-0.3-7.7,1.3
		c-2.2,1.5-3.8,3.9-4.8,6.4c-0.4,1.1-0.9,2.3-2,2.6c0.1-1.3,0.8-2.6,1.3-3.8c0.5-1.2,1-2.6,0.8-3.9s-1.4-2.6-2.7-2.5
		c-1.7,0.1-2.6,2.1-3.4,3.6c-1.9,3.7-5.3,6.2-8.6,8.7c-1,0.8-2.7,1.5-3.5,0.4c-0.3-0.4-0.3-1-0.2-1.5c0.3-1.9,1.8-3.4,2.8-5
		s1.7-3.9,0.5-5.4c-0.9-1.1-2.5-1.4-3.8-1c-1.3,0.4-2.4,1.4-3.3,2.6c-1.2,1.6-2.1,3.5-3.4,5.1c-1.2,1.6-2.9,3.1-4.9,3.3
		c-0.3,0-0.6,0-0.8-0.1c-0.4-0.3-0.3-0.8-0.2-1.2c0.4-1.7,1.5-3.2,2-4.9c0.5-1.7,0.1-4-1.5-4.5c-1.1-0.4-2.4,0.2-3.2,1
		c-0.8,0.9-1.2,2-1.6,3.1c-0.7,2.1-1.5,4.2-1.8,6.4c-0.1,0.7-0.2,1.3,0,2c0.4,1.4,2,3.2,3.5,3.3c3.8,0.3,7.7-2.1,9-3
		c1.3-0.9,0.5,3.6,2.8,4c2.3,0.5,4-0.7,5.7-1.8c2.9-1.9,6.8-5.4,9.2-7.8c0.3,1.3-0.7,3.8-0.5,5c0.2,1.1,0.6,2.4,1.6,2.8
		c0.7,0.3,1.6,0.2,2.3-0.1c4.3-1.7,5.6-7.2,8.9-10.5c0.6-0.6,1.8-0.9,2-0.1c0,0.2,0,0.4-0.1,0.5c-0.8,2.8-3.6,5-3.3,7.9
		c0.2,1.7,1.5,3.1,3,3.7c2.7,0.9,5.6-0.7,7.9-2.4c2.6-2,5.1-4.2,7.3-6.6c0.4,1.7-0.7,3.5-0.1,5.1c0.7,1.8,3.2,2.3,5,1.4
		c2-1,3.4-3.3,4.6-5c1.1-1.5,1.8-4.4,3.7-5.2c2.5-1-1.5,6.4-1.7,7.9c-0.1,0.7-0.3,1-0.2,1.7c0.9,2.9,3.6,3.5,6.3,3.3
		c1.8-0.1,3.5-0.7,4.9-1.8c1.9-1.4,3.7-2.9,5.1-4.9c1-1.4,1.9-2.4,2.8,0.3c1.2,3.9,3.6,5.2,7.6,5.2c3.3,0,6-1.6,8.6-3.4
		c1.2-0.8,2.3-1.7,3.6-2.6c1.4,4.9,4.3,6.4,8.8,4.9c4.5-1.5,8.2-4.2,11.4-7.7c0.4-0.5,1.1-1,0.2-1.9c-2.7,1.4-5.2,3.5-8.1,4.6
		c-2,0.8-4.6,2-5.9-0.2c-1.5-2.3,1-4,2.6-5.3c3.8-3.1,7.8-6,11.6-9.1c7.7-6.4,15.1-13.2,21.1-21.4c1.2-1.6,2.6-3.9,2-6
		C242.2,39.2,240.1,37.5,238.1,37.2z M183.3,81.6c0-1.6,3-4.6,4.7-4.7c0.8,0,1.3,0.2,1.4,1.1c0.1,1.5-3.5,4.8-5.1,4.8
		C183.5,82.7,183.3,82.3,183.3,81.6z M236.4,48.1c-0.6,0.8-1.3,1.5-1.6,1.9c-3.9,5.1-8.7,9.4-13.4,13.9c-2.7,2.6-5.7,5-8.5,7.5
		c-0.2,0.2-0.5,0.4-0.8,0.5c-0.3,0.1-0.6,0.2-0.9,0c1.1-2.8,3.6-5.2,5.4-7.5c3.2-4,6.5-8.2,9.9-12.1c1.7-2,3.5-3.9,5.3-5.8
		c1.1-1.1,4-5.1,5.8-3.5C239.2,44.1,237.8,46.4,236.4,48.1z"/>
</g>
</svg>
