<svg id="Layer_1" data-name="Layer 1" xmlns="http://www.w3.org/2000/svg" viewBox="0 0 236.37 76.31"><defs><style>.cls-1{fill:#2979ff;}.cls-2{fill:#14181d;}</style></defs><title>logo punnn</title><path class="cls-1" d="M.08,29.71c0-1.06,0-2.11,0-3.17.39-2.67,2.19-4.32,4.22-5.77,7-5,15-7.55,23.21-9.63,13.14-3.33,26.4-6.06,40.07-5.7,5.8.15,11.54.93,16.83,3.58,6.09,3,7.92,7,6.17,13.49-2.43,9.07-8.64,15.2-16.2,20.18C65,48.86,54.47,51.27,43.5,52c-4.78.32-9.64.56-14.41-.5a19.67,19.67,0,0,1-2.24-.64c-.81-.26-1.42-.73-1.28-1.7s1-.89,1.62-.93c2.65-.16,5.31-.1,8-.32C51.48,46.55,66,40.94,78,29.42a27.75,27.75,0,0,0,6.32-9.5c2.13-5.13.59-8.87-4.59-10.83A32.31,32.31,0,0,0,64.63,7.3C47.89,9.16,32,13.73,17.5,22.59c-4.39,2.68-8.39,5.78-11.34,10.12-1.67,2.45-3.36,2.27-5-.31A5.47,5.47,0,0,1,.08,29.71Z"/><path class="cls-2" d="M3.25,55.05A5.59,5.59,0,0,1,4.48,52.1,125.6,125.6,0,0,1,29,24.07a11.46,11.46,0,0,1,5-2.52,10.69,10.69,0,0,1,2.82-.19c.79,0,1.93,0,2.3.9s-.3,1.55-.92,2C33.7,27.44,30.53,32,26.72,36a114.14,114.14,0,0,0-9.64,11.09c-2.77,3.72-6,8.16-7.1,12.74-.22.91-.48,1.85-1.57,1.85-1.75,0-2.78-2-3.85-3.37A5.83,5.83,0,0,1,3.25,55.05Z"/><path class="cls-1" d="M19.43,55.2c9.49,6.27,19.6,6.38,29.88,4.18C59.37,57.22,69,54,75.71,45c.67,2.54.34,3.61-1.69,6.13C68,58.61,60.09,63,50.87,65.22a32.36,32.36,0,0,1-27.61-5.33C20.79,58.14,20.24,57.41,19.43,55.2Z"/><path class="cls-1" d="M69.77,32.45C58.17,30.93,48.28,34.37,38.65,39a11.42,11.42,0,0,1-3.57,1.25c-1,.12-2.41.26-2.88-.84A2.54,2.54,0,0,1,33,36.74a14.89,14.89,0,0,1,7-4.15c8.32-2.71,16.81-3.83,25.52-2.34A8.19,8.19,0,0,1,69.77,32.45Z"/><path class="cls-1" d="M48.61,75.81H45c-6.33-.51-8.93-1.77-10.87-5.16,12.28,3.44,23.14,1.33,32-8.15C66.71,68.69,58.56,75.07,48.61,75.81Z"/><path class="cls-2" d="M231.1.2a4.15,4.15,0,0,0-.86,0A17.48,17.48,0,0,0,223,2.9a30.81,30.81,0,0,0-5.69,4.55c-.87.86-1.71,1.75-2.53,2.65a116.72,116.72,0,0,0-20.76,31c-1.85,4.11-9.55,8.56-13.88,8-.88-.12-1.91-.19-2.12-1.24s.81-1.25,1.48-1.56a12.66,12.66,0,0,0,5.1-4.37,5.2,5.2,0,0,0,.22-6.1c-1.46-2.2-3.61-2.09-5.8-1.27-2.53.93-4.06,3-5.71,5a57,57,0,0,1-9.24,9.07c-.88.65-2.1,1.54-3.2.45s-.23-2.25.29-3.26C162,44.3,163,43,163.72,41.45s1.44-3.63-.38-4.82c-4.08-3.08-10.51,1.17-11.82,3.73l-3.06,6c-.38-1.84.58-3.65,1-5.47s-.07-4.27-1.91-4.66a3,3,0,0,0-2.69,1,12.11,12.11,0,0,0-1.62,2.53A23.32,23.32,0,0,1,134,48.91c-.8.44-1.85.8-2.56.24-1-.8-.28-2.43.47-3.51a30.18,30.18,0,0,0,2.26-3.84c.62-1.28,1-4.58-1.54-5.47a8.85,8.85,0,0,0-7.72,1.26A13.83,13.83,0,0,0,120.11,44c-.43,1-.92,2.29-2,2.57a13.77,13.77,0,0,1,1.32-3.84,7.16,7.16,0,0,0,.76-3.94,2.9,2.9,0,0,0-2.74-2.52c-1.74.11-2.61,2.08-3.41,3.63-1.9,3.65-5.31,6.24-8.62,8.7-1,.78-2.7,1.49-3.46.42a2,2,0,0,1-.21-1.48c.33-1.89,1.77-3.37,2.83-5s1.73-3.86.55-5.38a3.6,3.6,0,0,0-3.85-1A7.11,7.11,0,0,0,98,38.73c-1.24,1.61-2.13,3.47-3.35,5.11a7.6,7.6,0,0,1-4.94,3.31,1.13,1.13,0,0,1-.77-.12,1.12,1.12,0,0,1-.24-1.19c.38-1.73,1.51-3.2,2-4.89s.13-4-1.54-4.53a3.08,3.08,0,0,0-3.15,1,9,9,0,0,0-1.58,3.12A38.87,38.87,0,0,0,82.6,47a4.23,4.23,0,0,0,0,2c.44,1.41,2,3.18,3.51,3.31,3.79.34,7.68-2.09,9-3s.54,3.56,2.83,4,4-.67,5.73-1.82a69.74,69.74,0,0,0,9.18-7.82c.26,1.26-.74,3.78-.48,5,.23,1.1.57,2.35,1.58,2.84a2.89,2.89,0,0,0,2.3-.11c4.31-1.72,5.58-7.19,8.87-10.45.58-.57,1.8-.91,2-.12a1.25,1.25,0,0,1-.06.54c-.81,2.79-3.56,5-3.27,7.93a4.49,4.49,0,0,0,3,3.66c2.72.91,5.59-.69,7.89-2.39a55.84,55.84,0,0,0,7.35-6.56c.35,1.66-.69,3.45-.1,5.05.68,1.84,3.25,2.31,5,1.45,2-1,3.38-3.26,4.61-5,1.07-1.54,1.8-4.4,3.7-5.17,2.45-1-1.49,6.36-1.69,7.95-.09.67-.35,1-.15,1.65.87,2.86,3.59,3.49,6.27,3.27a9.52,9.52,0,0,0,4.94-1.77,20.09,20.09,0,0,0,5.07-4.88c1-1.4,1.9-2.35,2.76.32,1.24,3.85,3.57,5.23,7.59,5.19,3.34,0,6-1.58,8.62-3.45C189.84,47.8,191,47,192.25,46c1.36,4.85,4.32,6.42,8.84,4.9a26.53,26.53,0,0,0,11.35-7.7c.42-.47,1.09-1,.2-1.92-2.71,1.45-5.16,3.5-8.11,4.6-2,.75-4.57,2-5.92-.19-1.46-2.31,1-4,2.61-5.27,3.79-3.14,7.82-6,11.61-9.1,7.73-6.42,15.11-13.23,21.07-21.37,1.2-1.63,2.63-3.86,2-6A6.26,6.26,0,0,0,231.1.2ZM176.36,44.6c0-1.6,3-4.65,4.66-4.74.8,0,1.32.21,1.37,1.09.07,1.48-3.49,4.81-5.06,4.77C176.54,45.7,176.37,45.25,176.36,44.6Zm53.06-33.49c-.63.81-1.26,1.5-1.59,1.93-3.94,5.13-8.71,9.42-13.38,13.86-2.72,2.61-5.66,5-8.49,7.47a3.14,3.14,0,0,1-.76.53.81.81,0,0,1-.85,0c1.06-2.77,3.61-5.18,5.43-7.46,3.22-4,6.5-8.15,9.9-12.08,1.73-2,3.5-3.93,5.33-5.81,1.12-1.14,4-5.06,5.83-3.53C232.24,7.11,230.8,9.36,229.42,11.11Z"/></svg>