<svg id="Layer_1" data-name="Layer 1" xmlns="http://www.w3.org/2000/svg" viewBox="0 0 236.37 76.31"><defs><style>.cls-1{fill:#fff;}</style></defs><title>logo punnn</title><path class="cls-1" d="M.22,29.88c0-1.06,0-2.11,0-3.17C.59,24,2.4,22.39,4.42,20.94c7-5,15-7.55,23.21-9.63C40.78,8,54,5.25,67.7,5.61c5.81.15,11.54.93,16.83,3.57,6.09,3.05,7.93,7,6.18,13.5-2.44,9.07-8.65,15.2-16.2,20.18C65.15,49,54.6,51.44,43.63,52.18c-4.78.32-9.63.56-14.4-.5A19.84,19.84,0,0,1,27,51c-.81-.26-1.42-.73-1.27-1.7s1-.89,1.62-.93c2.64-.16,5.3-.1,7.94-.32,16.34-1.37,30.88-7,42.84-18.5a27.75,27.75,0,0,0,6.32-9.5C86.56,15,85,11.22,79.85,9.26A32.34,32.34,0,0,0,64.77,7.47C48,9.33,32.12,13.9,17.63,22.76c-4.38,2.68-8.39,5.78-11.34,10.12-1.67,2.45-3.36,2.27-5-.31A5.38,5.38,0,0,1,.22,29.88Z"/><path class="cls-1" d="M3.38,55.22a5.59,5.59,0,0,1,1.23-2.95,125.6,125.6,0,0,1,24.56-28,11.5,11.5,0,0,1,5-2.52A10.59,10.59,0,0,1,37,21.53c.8,0,1.93,0,2.3.9s-.3,1.55-.92,2c-4.56,3.2-7.73,7.79-11.55,11.73a112.69,112.69,0,0,0-9.63,11.09c-2.77,3.72-6,8.16-7.11,12.74-.21.91-.47,1.85-1.57,1.85-1.75,0-2.78-2-3.85-3.37A5.83,5.83,0,0,1,3.38,55.22Z"/><path class="cls-1" d="M19.56,55.37c9.5,6.27,19.6,6.38,29.88,4.18,10.06-2.16,19.67-5.43,26.41-14.37.67,2.54.33,3.61-1.69,6.13-6,7.47-13.94,11.83-23.16,14.08a32.37,32.37,0,0,1-27.61-5.33C20.93,58.31,20.37,57.58,19.56,55.37Z"/><path class="cls-1" d="M69.9,32.62c-11.6-1.52-21.49,1.92-31.11,6.57a11.48,11.48,0,0,1-3.58,1.25c-1,.12-2.41.26-2.88-.84a2.56,2.56,0,0,1,.78-2.69,14.86,14.86,0,0,1,7-4.15c8.32-2.71,16.81-3.83,25.53-2.34A8.16,8.16,0,0,1,69.9,32.62Z"/><path class="cls-1" d="M48.74,76H45.17c-6.33-.51-8.93-1.77-10.86-5.16,12.27,3.44,23.13,1.33,32-8.15C66.85,68.86,58.69,75.24,48.74,76Z"/><path class="cls-1" d="M231.24.37a4.27,4.27,0,0,0-.87,0,17.54,17.54,0,0,0-7.2,2.73,31.49,31.49,0,0,0-5.69,4.55c-.87.86-1.71,1.75-2.53,2.65a117.2,117.2,0,0,0-20.76,31c-1.84,4.11-9.54,8.56-13.87,8-.89-.12-1.91-.19-2.13-1.24s.81-1.25,1.48-1.56a12.59,12.59,0,0,0,5.1-4.37A5.18,5.18,0,0,0,185,36c-1.46-2.2-3.61-2.09-5.81-1.27-2.53.93-4.06,3-5.71,5a57,57,0,0,1-9.23,9.07c-.88.65-2.11,1.54-3.2.45s-.24-2.25.28-3.26c.76-1.48,1.82-2.82,2.52-4.33s1.44-3.63-.37-4.82C159.39,33.72,153,38,151.66,40.53l-3.06,6c-.39-1.84.58-3.65,1-5.47s-.07-4.27-1.9-4.66a3,3,0,0,0-2.69,1A11.76,11.76,0,0,0,143.39,40a23.19,23.19,0,0,1-9.23,9.09c-.8.44-1.84.8-2.56.24-1-.8-.27-2.43.47-3.51A29,29,0,0,0,134.33,42c.63-1.28,1-4.58-1.53-5.47a8.84,8.84,0,0,0-7.72,1.26,13.79,13.79,0,0,0-4.84,6.36c-.43,1.05-.92,2.29-2,2.57a13.43,13.43,0,0,1,1.31-3.84,7.07,7.07,0,0,0,.76-3.94,2.89,2.89,0,0,0-2.73-2.52c-1.75.11-2.61,2.08-3.42,3.63-1.9,3.65-5.31,6.24-8.61,8.7-1.05.78-2.71,1.49-3.46.42a1.94,1.94,0,0,1-.22-1.48c.33-1.89,1.77-3.37,2.83-5s1.74-3.86.55-5.38a3.6,3.6,0,0,0-3.85-1,7,7,0,0,0-3.28,2.56C96.86,40.51,96,42.37,94.75,44a7.6,7.6,0,0,1-4.94,3.31,1.1,1.1,0,0,1-.76-.12A1.14,1.14,0,0,1,88.8,46c.38-1.73,1.51-3.2,2-4.89s.13-3.95-1.54-4.53a3.1,3.1,0,0,0-3.15,1,9.2,9.2,0,0,0-1.58,3.12,38.87,38.87,0,0,0-1.84,6.42,4.37,4.37,0,0,0,0,2c.44,1.41,2.05,3.18,3.52,3.31,3.79.34,7.67-2.09,9-3s.53,3.56,2.82,4,4-.67,5.73-1.82A70.48,70.48,0,0,0,113,43.84c.26,1.26-.75,3.78-.49,5,.23,1.1.57,2.35,1.58,2.84a2.91,2.91,0,0,0,2.31-.11c4.3-1.72,5.57-7.19,8.87-10.45.57-.57,1.79-.91,2-.12a1.12,1.12,0,0,1-.06.54c-.8,2.79-3.56,5-3.27,7.93a4.48,4.48,0,0,0,3,3.66c2.71.91,5.59-.69,7.88-2.39a55.84,55.84,0,0,0,7.35-6.56c.35,1.66-.68,3.45-.09,5.05.67,1.84,3.24,2.31,5,1.45,2-1,3.37-3.26,4.6-5,1.07-1.54,1.8-4.4,3.7-5.17,2.45-1-1.49,6.36-1.69,7.95-.09.67-.35,1-.15,1.65.87,2.86,3.59,3.49,6.27,3.27a9.52,9.52,0,0,0,4.94-1.77,20.3,20.3,0,0,0,5.08-4.88c1-1.4,1.89-2.35,2.75.32,1.24,3.85,3.57,5.23,7.6,5.19,3.33,0,6-1.58,8.62-3.45l3.56-2.59c1.36,4.85,4.33,6.42,8.84,4.9a26.62,26.62,0,0,0,11.36-7.7c.41-.47,1.08-1,.2-1.92-2.72,1.45-5.16,3.5-8.11,4.6-2,.75-4.57,1.95-5.93-.19-1.45-2.31,1-4,2.61-5.27,3.79-3.14,7.83-6,11.61-9.1,7.73-6.42,15.11-13.23,21.08-21.37,1.19-1.64,2.62-3.86,2-6A6.26,6.26,0,0,0,231.24.37Zm-54.75,44.4c0-1.6,3-4.65,4.66-4.74.8,0,1.33.21,1.37,1.09.08,1.48-3.48,4.81-5.05,4.77C176.68,45.87,176.5,45.42,176.49,44.77Zm53.07-33.49c-.64.81-1.27,1.5-1.6,1.93-3.94,5.13-8.71,9.42-13.37,13.86-2.73,2.61-5.67,5-8.5,7.46a3,3,0,0,1-.75.54.81.81,0,0,1-.85,0c1-2.77,3.6-5.18,5.43-7.46,3.22-4,6.49-8.15,9.9-12.08,1.72-2,3.49-3.93,5.33-5.81,1.11-1.14,3.95-5.06,5.83-3.53C232.37,7.28,230.94,9.53,229.56,11.28Z"/></svg>